HIERARCHY
ROOT root
{
	OFFSET	0	13.1	24.9
	CHANNELS 6  Xposition Yposition Zposition Xrotation Yrotation Zrotation
	JOINT spine_1
	{
		OFFSET	0	9.99999	0
		CHANNELS 3  Xrotation Yrotation Zrotation
		JOINT spine_2
		{
			OFFSET	0	112	-10
			CHANNELS 3  Xrotation Yrotation Zrotation
			JOINT spine_3
			{
				OFFSET	0	206.5	19.3
				CHANNELS 3  Xrotation Yrotation Zrotation
				JOINT spine_4
				{
					OFFSET	0	110.4	14.6
					CHANNELS 3  Xrotation Yrotation Zrotation
					JOINT neck_1
					{
						OFFSET	0	71.8	-50.3
						CHANNELS 3  Xrotation Yrotation Zrotation
						JOINT neck_2
						{
							OFFSET	0	86.2	-25.8
							CHANNELS 3  Xrotation Yrotation Zrotation
							JOINT head_ee
							{
								OFFSET	0	179.8	-8.7
								CHANNELS 3  Xrotation Yrotation Zrotation
								End Site
								{
									OFFSET	1	0	0
								}
							}
						}
					}
					JOINT left_clavicle
					{
						OFFSET	-43.2	22.4	-70.8
						CHANNELS 3  Xrotation Yrotation Zrotation
						JOINT left_shoulder
						{
							OFFSET	-93.9	-5.79999	48.7
							CHANNELS 3  Xrotation Yrotation Zrotation
							JOINT left_elbow
							{
								OFFSET	-291.4	-30.8	15.2
								CHANNELS 3  Xrotation Yrotation Zrotation
								JOINT left_lowarm_twist
								{
									OFFSET	-110.7	-3.89999	13.6
									CHANNELS 3  Xrotation Yrotation Zrotation
									JOINT left_hand
									{
										OFFSET	-110.7	-3.89999	13.6
										CHANNELS 3  Xrotation Yrotation Zrotation
										JOINT left_ee
										{
											OFFSET	-80.8	-5.10001	12.1
											CHANNELS 3  Xrotation Yrotation Zrotation
											End Site
											{
												OFFSET	1	0	0
											}
										}
									}
								}
							}
						}
					}
					JOINT right_clavicle
					{
						OFFSET	43.2	22.4	-70.8
						CHANNELS 3  Xrotation Yrotation Zrotation
						JOINT right_shoulder
						{
							OFFSET	93.9	-5.79999	48.7
							CHANNELS 3  Xrotation Yrotation Zrotation
							JOINT right_elbow
							{
								OFFSET	291.4	-30.8	15.2
								CHANNELS 3  Xrotation Yrotation Zrotation
								JOINT right_lowarm_twist
								{
									OFFSET	110.7	-3.89999	13.6
									CHANNELS 3  Xrotation Yrotation Zrotation
									JOINT right_hand
									{
										OFFSET	110.7	-3.89999	13.6
										CHANNELS 3  Xrotation Yrotation Zrotation
										JOINT right_ee
										{
											OFFSET	80.8	-5.10001	12.1
											CHANNELS 3  Xrotation Yrotation Zrotation
											End Site
											{
												OFFSET	1	0	0
											}
										}
									}
								}
							}
						}
					}
				}
			}
		}
	}
	JOINT left_hip
	{
		OFFSET	-82.8	-127.5	0.300001
		CHANNELS 3  Xrotation Yrotation Zrotation
		JOINT left_knee
		{
			OFFSET	-28.2	-396.7	2.2
			CHANNELS 3  Xrotation Yrotation Zrotation
			JOINT left_ankle
			{
				OFFSET	-11.7	-411.3	35.4
				CHANNELS 3  Xrotation Yrotation Zrotation
				JOINT left_toes
				{
					OFFSET	0	-60	-88.6
					CHANNELS 3  Xrotation Yrotation Zrotation
					JOINT left_foot_ee
					{
						OFFSET	-22.5	-16.5	-42.2
						CHANNELS 3  Xrotation Yrotation Zrotation
						End Site
						{
							OFFSET	1	0	0
						}
					}
				}
			}
		}
	}
	JOINT right_hip
	{
		OFFSET	82.8	-127.5	0.300001
		CHANNELS 3  Xrotation Yrotation Zrotation
		JOINT right_knee
		{
			OFFSET	28.2	-396.7	2.2
			CHANNELS 3  Xrotation Yrotation Zrotation
			JOINT right_ankle
			{
				OFFSET	11.7	-411.3	35.4
				CHANNELS 3  Xrotation Yrotation Zrotation
				JOINT right_toes
				{
					OFFSET	0	-60	-88.6
					CHANNELS 3  Xrotation Yrotation Zrotation
					JOINT right_foot_ee
					{
						OFFSET	22.5	-16.5	-42.2
						CHANNELS 3  Xrotation Yrotation Zrotation
						End Site
						{
							OFFSET	1	0	0
						}
					}
				}
			}
		}
	}
}
MOTION
Frames: 11
Frame Time: 0.02
2631.32 740.753 -1371.73 -2.76289 47.9958 0.361287 0.43521 0.343011 0.831798 0.435549 0.289389 0.851937 0.44008 0.11075 0.892901 0.439055 0.250372 0.864207 -21.7732 21.2497 10.5633 -23.885 36.0368 20.1776 -0.0 0.0 -0.0 6.40586 12.126 12.2527 3.01527 -0.0792585 44.2062 3.22065 -57.9078 1.78218 -56.0526 -4.79632 4.96143 0.46964 19.2428 10.6357 -0.0 0.0 -0.0 12.0147 16.6049 -24.1667 -27.2777 13.7029 -52.5164 0.594479 16.4092 -0.085715 84.9301 4.41816 8.8629 -6.49358 -29.4565 24.0903 0.0 0.0 0.0 -2.82341 41.544 7.99703 -2.34285 0.0893499 0.348423 22.5117 2.27717 -3.047 -18.1951 0.0 0.0 -0.0 0.0 -0.0 25.6828 17.5032 -2.48543 -15.303 -0.322004 -2.31938 -7.87322 21.5325 -1.35384 -16.6537 0.0 0.0 0.0 0.0 0.0 
2620.8 741.694 -1373.93 -2.68415 48.1036 0.489139 0.418908 0.293929 0.83034 0.41926 0.240498 0.847359 0.423032 0.0635342 0.87853 0.422011 0.201479 0.857474 -24.1809 20.7853 12.193 -26.3826 34.8505 22.3309 -0.0 0.0 -0.0 6.2916 11.4311 12.0782 3.6565 -0.239167 43.5893 3.5551 -60.3957 2.06938 -56.9433 -4.90524 4.99589 0.340061 20.7273 10.3841 -0.0 0.0 -0.0 11.8513 15.5142 -23.8394 -27.4167 12.9295 -52.6293 0.588335 16.2486 -0.0839878 84.9489 4.4204 8.86377 -6.4095 -29.4776 23.5668 0.0 0.0 0.0 -4.00183 41.4791 8.46734 -3.13888 0.116452 0.467583 24.2076 4.86209 -3.24007 -16.8522 0.0 0.0 -0.0 0.0 -0.0 25.8328 18.0685 -3.31292 -9.39538 -0.271344 -1.41475 -6.79288 24.1581 -1.19895 -16.5611 0.0 0.0 0.0 0.0 0.0 
2609.84 736.441 -1376.95 -3.17858 48.126 1.14675 0.371546 0.207141 0.863545 0.371948 0.151773 0.874975 0.37447 -0.0297118 0.887542 0.373388 0.110826 0.881097 -26.7093 19.9412 14.2103 -28.7828 32.8883 24.582 -0.0 0.0 -0.0 6.11815 11.3903 11.7776 4.51794 -0.497617 42.7551 4.10835 -63.8134 2.55856 -57.5575 -4.98065 5.01867 0.205256 22.0014 10.0388 -0.0 0.0 -0.0 11.6423 14.1816 -23.4093 -27.806 12.058 -52.7039 0.581601 16.0723 -0.0821134 84.9804 4.42418 8.86523 -6.2714 -29.4526 22.7653 0.0 0.0 0.0 -4.85302 41.5196 8.47668 -3.8228 0.138411 0.570247 26.384 6.95866 -3.48955 -15.2387 0.0 0.0 -0.0 0.0 -0.0 26.5703 18.714 -4.37751 -3.69692 -0.134462 -0.551332 -5.32621 27.5911 -0.976682 -16.6185 0.0 0.0 0.0 0.0 0.0 
2601.54 733.581 -1385.21 -2.77076 48.0777 0.833692 0.327385 0.144405 0.789221 0.327726 0.0938939 0.796809 0.329193 -0.0710849 0.799167 0.328306 0.0560166 0.800364 -28.4233 19.0413 15.4762 -30.2805 31.0352 25.773 -0.0 0.0 -0.0 5.89996 11.5648 11.3948 5.08062 -0.624486 41.9415 4.58403 -66.2105 2.98981 -57.8214 -5.01312 5.02821 0.119932 22.2973 9.64164 -0.0 0.0 -0.0 11.7005 13.0337 -23.5705 -27.593 11.3347 -53.2282 0.573916 15.8707 -0.0799989 85.0328 4.43045 8.86764 -6.34661 -29.519 23.1545 0.0 0.0 0.0 -5.95156 41.0268 8.35366 -4.14776 0.148415 0.619114 28.7781 7.45974 -3.75684 -14.2998 0.0 0.0 -0.0 0.0 -0.0 27.1896 19.3934 -5.36802 1.4683 0.0632424 0.216431 -4.70003 28.9773 -0.876423 -17.0641 0.0 0.0 0.0 0.0 0.0 
2593.1 732.914 -1389.01 -2.10549 47.8638 -0.13511 0.300565 0.0822906 0.877474 0.300993 0.0262901 0.880932 0.301567 -0.154895 0.867607 0.300517 -0.0159339 0.88118 -28.1805 19.0218 15.2135 -30.031 31.042 25.4276 -0.0 0.0 -0.0 5.84129 11.7409 11.2894 5.28178 -0.754424 41.1143 4.86471 -67.4394 3.24786 -58.0376 -5.03976 5.03591 0.0453222 22.2255 9.17522 -0.0 0.0 -0.0 11.5809 12.1546 -23.3162 -27.4776 11.2422 -53.7281 0.566907 15.6865 -0.078093 85.2159 4.45239 8.87604 -6.57032 -29.5461 24.4719 0.0 0.0 0.0 -6.81073 40.2419 9.0502 -4.82613 0.168404 0.721305 30.4367 6.79674 -3.93487 -13.4166 0.0 0.0 -0.0 0.0 -0.0 27.89 19.6538 -6.5449 3.27017 0.148413 0.479755 -5.14693 28.6092 -0.956017 -17.4995 0.0 0.0 0.0 0.0 0.0 
2584.4 726.625 -1393.21 -1.46934 47.9019 -0.993875 0.267217 0.0205773 0.863754 0.267631 -0.0344252 0.863313 0.267255 -0.211215 0.837786 0.266283 -0.0762567 0.860627 -27.834 18.9721 14.7799 -29.6768 31.033 24.8707 -0.0 0.0 -0.0 5.76863 12.5239 11.1473 5.29552 -0.59002 40.0823 5.31511 -69.1763 3.6664 -58.3171 -5.07423 5.04571 -0.0608147 22.1236 8.51193 -0.0 0.0 -0.0 11.4827 11.0782 -23.1082 -27.162 11.2713 -54.3425 0.560488 15.5175 -0.0763667 85.4801 4.4841 8.88803 -6.88119 -29.555 26.36 0.0 0.0 0.0 -7.95527 39.105 10.204 -5.80309 0.19506 0.868863 32.7854 5.76259 -4.17844 -12.1653 0.0 0.0 -0.0 0.0 -0.0 28.6634 20.052 -8.08989 5.79225 0.281478 0.843656 -5.8922 27.9319 -1.08653 -18.1256 0.0 0.0 0.0 0.0 0.0 
2568.48 713.569 -1397.22 -1.05374 46.3877 -1.89971 0.358813 0.0398349 0.996486 0.359365 -0.0236516 0.997001 0.359139 -0.226609 0.971197 0.357829 -0.0703906 0.994795 -28.6377 18.5905 15.1441 -30.4271 30.3239 25.2558 -0.0 0.0 -0.0 5.71979 13.4693 11.042 6.32269 -0.676811 39.5038 6.17678 -71.8693 4.47899 -58.8862 -5.14457 5.06516 -0.224682 22.0821 7.53256 -0.0 0.0 -0.0 11.3749 10.8425 -22.8682 -27.2555 11.4315 -54.7168 0.549597 15.2301 -0.0734791 85.5303 4.49013 8.89029 -7.38806 -30.0172 29.0705 0.0 0.0 0.0 -9.55632 38.1192 11.2024 -7.05677 0.225571 1.05883 34.8065 4.43016 -4.38049 -10.9445 0.0 0.0 -0.0 0.0 -0.0 28.1962 20.3135 -7.90204 6.89429 0.34464 1.0008 -9.43047 26.7901 -1.72523 -19.0194 0.0 0.0 0.0 0.0 0.0 
2547.02 715.173 -1399.14 -0.717527 45.7726 -3.19465 0.239425 0.0828698 1.32844 0.240407 -0.0018225 1.33102 0.240742 -0.27611 1.30207 0.238382 -0.0670254 1.32933 -29.3008 18.1858 15.3288 -31.0299 29.6085 25.4048 -0.0 0.0 -0.0 5.6491 14.8008 10.8893 6.24641 -0.817801 39.5508 7.07649 -74.0402 5.33934 -59.441 -5.21332 5.08344 -0.4207 21.6757 6.22237 -0.0 0.0 -0.0 11.2033 10.5374 -22.4867 -27.4544 11.5299 -55.1411 0.507325 14.1073 -0.0627742 85.6017 4.49871 8.89349 -7.99519 -30.3467 32.6521 0.0 0.0 0.0 -11.8694 36.6736 12.618 -11.9881 0.305064 1.81112 37.6592 2.23292 -4.65575 -9.17745 0.0 0.0 -0.0 0.0 -0.0 28.2932 20.3603 -8.13001 8.29614 0.429347 1.19892 -14.5967 25.1881 -2.63606 -20.3502 0.0 0.0 0.0 0.0 0.0 
2533.93 708.415 -1401.99 -0.44486 45.5164 -3.51233 0.181983 0.0531289 1.30693 0.182933 -0.030135 1.30766 0.182605 -0.300298 1.27308 0.180356 -0.0954881 1.30452 -29.9931 18.3398 15.4804 -31.8684 29.9698 25.9487 -0.0 0.0 -0.0 5.43456 14.6182 10.5401 6.12802 -1.15135 39.624 8.08596 -75.938 6.3145 -59.5465 -5.22641 5.08684 -0.418591 21.1167 6.01306 -0.0 0.0 -0.0 11.0489 10.1013 -22.1452 -27.3422 11.7524 -55.3084 0.447924 12.5108 -0.0490985 85.4843 4.4846 8.88822 -8.09996 -30.2332 33.4826 0.0 0.0 0.0 -12.958 36.193 13.2917 -10.6413 0.289786 1.60503 38.5433 0.76924 -4.74317 -9.47202 0.0 0.0 -0.0 0.0 -0.0 28.5084 20.3658 -8.52966 7.7404 0.395185 1.12062 -16.7027 23.583 -2.96646 -20.3309 0.0 0.0 0.0 0.0 0.0 
2523.53 704.363 -1403.39 0.0385352 45.3764 -4.03557 0.196215 0.166759 1.29904 0.19715 0.0837671 1.30702 0.199486 -0.188321 1.29609 0.197142 0.0187172 1.30956 -29.4582 19.019 15.2756 -31.5273 31.2344 26.0485 -0.0 0.0 -0.0 5.31408 14.6468 10.341 5.92699 -1.5166 39.7403 8.49109 -76.5797 6.70803 -59.6746 -5.24231 5.09094 -0.417428 20.3498 5.71446 -0.0 0.0 -0.0 10.8471 9.50507 -21.7 -27.098 12.1171 -55.5774 0.45738 12.7663 -0.0511676 85.4248 4.47746 8.88553 -8.1997 -30.1823 34.2175 0.0 0.0 0.0 -14.4533 35.5609 13.7811 -8.7243 0.259697 1.31244 38.7603 -0.064753 -4.76821 -10.2674 0.0 0.0 -0.0 0.0 -0.0 28.814 20.3677 -9.11019 7.79297 0.398384 1.12804 -18.0798 21.4663 -3.14211 -20.2814 0.0 0.0 0.0 0.0 0.0 
2513.14 702.8 -1407.73 0.46286 44.9634 -3.66682 0.187452 0.349359 1.20699 0.188221 0.271853 1.22677 0.194515 0.0122319 1.25647 0.192374 0.210499 1.23877 -28.669 19.9603 14.9313 -31.0136 33.005 26.1104 -0.0 0.0 -0.0 5.16895 14.7562 10.1005 5.61254 -2.02363 39.936 9.10544 -77.4489 7.3067 -59.8532 -5.2645 5.09659 -0.39925 19.2655 5.3892 -0.0 0.0 -0.0 10.5847 8.63816 -21.1228 -26.8574 12.6336 -56.5683 0.47147 13.1461 -0.0543267 85.3383 4.46708 8.88161 -8.33302 -30.0845 35.2504 0.0 0.0 0.0 -16.4498 34.6798 14.3711 -5.95082 0.198871 0.891214 39.1757 -1.14427 -4.81377 -11.372 0.0 0.0 -0.0 0.0 -0.0 29.4135 20.4793 -9.67036 7.55253 0.383808 1.09408 -20.0218 18.5418 -3.38574 -20.2101 0.0 0.0 0.0 0.0 0.0 
